<?xml version="1.0" encoding="UTF-8" standalone="no"?>
<svg
   xmlns:dc="http://purl.org/dc/elements/1.1/"
   xmlns:cc="http://creativecommons.org/ns#"
   xmlns:rdf="http://www.w3.org/1999/02/22-rdf-syntax-ns#"
   xmlns:svg="http://www.w3.org/2000/svg"
   xmlns="http://www.w3.org/2000/svg"
   xmlns:sodipodi="http://sodipodi.sourceforge.net/DTD/sodipodi-0.dtd"
   xmlns:inkscape="http://www.inkscape.org/namespaces/inkscape"
   width="75"
   height="75"
   fill="none"
   viewBox="0 0 75 75"
   version="1.1"
   id="svg18"
   sodipodi:docname="cjs-logo.svg"
   inkscape:version="1.0.1 (c497b03c, 2020-09-10)"
   inkscape:export-filename="/Users/victor/Desktop/projects/mystore/public/favicon.png"
   inkscape:export-xdpi="96"
   inkscape:export-ydpi="96">
  <metadata
     id="metadata24">
    <rdf:RDF>
      <cc:Work
         rdf:about="">
        <dc:format>image/svg+xml</dc:format>
        <dc:type
           rdf:resource="http://purl.org/dc/dcmitype/StillImage" />
      </cc:Work>
    </rdf:RDF>
  </metadata>
  <defs
     id="defs22" />
  <sodipodi:namedview
     pagecolor="#ffffff"
     bordercolor="#666666"
     borderopacity="1"
     objecttolerance="10"
     gridtolerance="10"
     guidetolerance="10"
     inkscape:pageopacity="0"
     inkscape:pageshadow="2"
     inkscape:window-width="1280"
     inkscape:window-height="693"
     id="namedview20"
     showgrid="false"
     inkscape:zoom="4.6744953"
     inkscape:cx="24.974691"
     inkscape:cy="29.075407"
     inkscape:window-x="0"
     inkscape:window-y="189"
     inkscape:window-maximized="0"
     inkscape:current-layer="svg18"
     inkscape:document-rotation="0" />
  <g
     id="g70"
     transform="translate(0,6.4202885)">
    <path
       style="font-style:normal;font-variant:normal;font-weight:900;font-stretch:normal;font-size:45.6196px;line-height:1.25;font-family:Frutiger;-inkscape-font-specification:'Frutiger, Heavy';font-variant-ligatures:normal;font-variant-caps:normal;font-variant-numeric:normal;font-variant-east-asian:normal;fill:#000000;stroke-width:1.32616"
       d="m 18.939353,48.607886 h 7.670488 L 29.537994,31.54821 h 0.06366 l 3.150948,17.059676 h 7.606833 L 45.32456,26.392113 H 39.563737 L 36.667411,43.45179 h -0.06366 L 33.484636,26.392113 h -7.51135 L 22.981477,43.45179 h -0.06366 L 20.053324,26.392113 h -6.047273 z"
       id="path35" />
    <path
       style="font-style:normal;font-variant:normal;font-weight:900;font-stretch:normal;font-size:45.6196px;line-height:1.25;font-family:Frutiger;-inkscape-font-specification:'Frutiger, Heavy';font-variant-ligatures:normal;font-variant-caps:normal;font-variant-numeric:normal;font-variant-east-asian:normal;fill:#000000;stroke-width:1.32616"
       d="M 60.930293,26.392113 H 43.902445 v 4.392231 H 54.182809 L 43.615995,43.897378 v 4.710508 H 60.993949 V 44.215655 H 50.045201 L 60.930293,31.102621 Z"
       id="path37" />
    <g
       aria-label="°"
       id="text57"
       style="font-weight:bold;font-size:24px;line-height:1.25;font-family:Frutiger;-inkscape-font-specification:'Frutiger Bold';fill:#000000">
      <path
         d="m 44.590394,15.303537 c 1.248,0 2.112,0.864 2.112,2.112 0,1.248 -0.864,2.112 -2.112,2.112 -1.248,0 -2.112,-0.864 -2.112,-2.112 0,-1.248 0.864,-2.112 2.112,-2.112 z m 0,-1.752 c -2.136,0 -3.864,1.728 -3.864,3.864 0,2.232 1.632,3.864 3.864,3.864 2.184,0 3.864,-1.68 3.864,-3.864 0,-2.136 -1.728,-3.864 -3.864,-3.864 z"
         id="path59" />
    </g>
  </g>
</svg>
